# xmcd
#
# Track frame offsets: 
#        150
#        24457
#        42482
#        59748
#        82949
#        100084
#        113102
#        136256
#        150603
#        167925
#        186194
#        203998
#        231699
#
# Disc length: 3405 seconds
#
# Revision: 0
# Processed by: cddbd v1.5.2PL0 Copyright (c) Steve Scherf et al.
# Submitted via: ExactAudioCopy v1.0b4
#
DISCID=b50d4b0d
DTITLE=中村仁美 - 録りっぱなし弾き語り集
DYEAR=2018
DGENRE=JPop
TTITLE0=Spring！
TTITLE1=Yuri
TTITLE2=見えなくても
TTITLE3=悠～とおい～
TTITLE4=セパレート
TTITLE5=Be strong
TTITLE6=Letter
TTITLE7=僕の彼女
TTITLE8=Last song
TTITLE9=オーロラ
TTITLE10=暁
TTITLE11=この恋を叶えて
TTITLE12=惜春
EXTD=
EXTT0=
EXTT1=
EXTT2=
EXTT3=
EXTT4=
EXTT5=
EXTT6=
EXTT7=
EXTT8=
EXTT9=
EXTT10=
EXTT11=
EXTT12=
PLAYORDER=
